<svg xmlns="http://www.w3.org/2000/svg" xmlns:xlink="http://www.w3.org/1999/xlink" width="90" zoomAndPan="magnify" viewBox="0 0 67.5 30.000001" height="40" preserveAspectRatio="xMidYMid meet" version="1.0"><defs><filter x="0%" y="0%" width="100%" height="100%" id="dd8b61a0c5"><feColorMatrix values="0 0 0 0 1 0 0 0 0 1 0 0 0 0 1 0 0 0 1 0" color-interpolation-filters="sRGB"/></filter><g/><clipPath id="b184069db5"><path d="M 41.816406 14 L 49 14 L 49 19 L 41.816406 19 Z M 41.816406 14 " clip-rule="nonzero"/></clipPath><clipPath id="ec04329d27"><path d="M 7 9.160156 L 12 9.160156 L 12 13 L 7 13 Z M 7 9.160156 " clip-rule="nonzero"/></clipPath><clipPath id="0e77fec88c"><path d="M 9 12 L 13.828125 12 L 13.828125 17 L 9 17 Z M 9 12 " clip-rule="nonzero"/></clipPath><clipPath id="4dc3130a9d"><path d="M 5.121094 12 L 9 12 L 9 17 L 5.121094 17 Z M 5.121094 12 " clip-rule="nonzero"/></clipPath><clipPath id="62b0b35b32"><path d="M 7 14 L 12 14 L 12 17.867188 L 7 17.867188 Z M 7 14 " clip-rule="nonzero"/></clipPath><clipPath id="8072c7bacf"><path d="M 0.847656 0 L 59.316406 0 L 59.316406 29.03125 L 0.847656 29.03125 Z M 0.847656 0 " clip-rule="nonzero"/></clipPath><clipPath id="9862f4b3dd"><path d="M 0.847656 0 L 59.316406 0 L 59.316406 29.03125 L 0.847656 29.03125 Z M 0.847656 0 " clip-rule="nonzero"/></clipPath><clipPath id="45cc227fe7"><path d="M 0.847656 0 L 57.867188 0 L 57.867188 29.03125 L 0.847656 29.03125 Z M 0.847656 0 " clip-rule="nonzero"/></clipPath><linearGradient x1="-19.564679" gradientTransform="matrix(0.72389, 0, 0, 0.7254, 15.00944, 11.968335)" y1="4" x2="59.203001" gradientUnits="userSpaceOnUse" y2="4" id="0cb36036db"><stop stop-opacity="1" stop-color="rgb(0%, 0%, 0%)" offset="0"/><stop stop-opacity="1" stop-color="rgb(0.0366211%, 0.0350952%, 0.144958%)" offset="0.25"/><stop stop-opacity="1" stop-color="rgb(0.256348%, 0.245667%, 0.991821%)" offset="0.253906"/><stop stop-opacity="1" stop-color="rgb(0.437927%, 0.421143%, 1.695251%)" offset="0.257812"/><stop stop-opacity="1" stop-color="rgb(0.619507%, 0.595093%, 2.398682%)" offset="0.261719"/><stop stop-opacity="1" stop-color="rgb(0.801086%, 0.770569%, 3.102112%)" offset="0.265625"/><stop stop-opacity="1" stop-color="rgb(0.982666%, 0.946045%, 3.804016%)" offset="0.269531"/><stop stop-opacity="1" stop-color="rgb(1.164246%, 1.121521%, 4.507446%)" offset="0.273438"/><stop stop-opacity="1" stop-color="rgb(1.345825%, 1.295471%, 5.209351%)" offset="0.277344"/><stop stop-opacity="1" stop-color="rgb(1.527405%, 1.470947%, 5.912781%)" offset="0.28125"/><stop stop-opacity="1" stop-color="rgb(1.708984%, 1.644897%, 6.616211%)" offset="0.285156"/><stop stop-opacity="1" stop-color="rgb(1.89209%, 1.820374%, 7.319641%)" offset="0.289062"/><stop stop-opacity="1" stop-color="rgb(2.073669%, 1.994324%, 8.021545%)" offset="0.292969"/><stop stop-opacity="1" stop-color="rgb(2.255249%, 2.1698%, 8.724976%)" offset="0.296875"/><stop stop-opacity="1" stop-color="rgb(2.436829%, 2.34375%, 9.42688%)" offset="0.300781"/><stop stop-opacity="1" stop-color="rgb(2.618408%, 2.519226%, 10.13031%)" offset="0.304688"/><stop stop-opacity="1" stop-color="rgb(2.799988%, 2.694702%, 10.83374%)" offset="0.308594"/><stop stop-opacity="1" stop-color="rgb(2.981567%, 2.870178%, 11.53717%)" offset="0.3125"/><stop stop-opacity="1" stop-color="rgb(3.163147%, 3.044128%, 12.239075%)" offset="0.316406"/><stop stop-opacity="1" stop-color="rgb(3.344727%, 3.219604%, 12.942505%)" offset="0.320312"/><stop stop-opacity="1" stop-color="rgb(3.526306%, 3.393555%, 13.645935%)" offset="0.324219"/><stop stop-opacity="1" stop-color="rgb(3.707886%, 3.569031%, 14.349365%)" offset="0.328125"/><stop stop-opacity="1" stop-color="rgb(3.889465%, 3.742981%, 15.05127%)" offset="0.332031"/><stop stop-opacity="1" stop-color="rgb(4.072571%, 3.918457%, 15.7547%)" offset="0.335938"/><stop stop-opacity="1" stop-color="rgb(4.25415%, 4.093933%, 16.456604%)" offset="0.339844"/><stop stop-opacity="1" stop-color="rgb(4.43573%, 4.269409%, 17.160034%)" offset="0.34375"/><stop stop-opacity="1" stop-color="rgb(4.61731%, 4.443359%, 17.863464%)" offset="0.347656"/><stop stop-opacity="1" stop-color="rgb(4.798889%, 4.618835%, 18.566895%)" offset="0.351562"/><stop stop-opacity="1" stop-color="rgb(4.980469%, 4.792786%, 19.268799%)" offset="0.355469"/><stop stop-opacity="1" stop-color="rgb(5.162048%, 4.968262%, 19.972229%)" offset="0.359375"/><stop stop-opacity="1" stop-color="rgb(5.343628%, 5.142212%, 20.674133%)" offset="0.363281"/><stop stop-opacity="1" stop-color="rgb(5.525208%, 5.317688%, 21.377563%)" offset="0.367188"/><stop stop-opacity="1" stop-color="rgb(5.706787%, 5.491638%, 22.080994%)" offset="0.371094"/><stop stop-opacity="1" stop-color="rgb(5.888367%, 5.667114%, 22.784424%)" offset="0.375"/><stop stop-opacity="1" stop-color="rgb(6.069946%, 5.84259%, 23.486328%)" offset="0.378906"/><stop stop-opacity="1" stop-color="rgb(6.251526%, 6.018066%, 24.189758%)" offset="0.382812"/><stop stop-opacity="1" stop-color="rgb(6.433105%, 6.192017%, 24.891663%)" offset="0.386719"/><stop stop-opacity="1" stop-color="rgb(6.616211%, 6.367493%, 25.595093%)" offset="0.390625"/><stop stop-opacity="1" stop-color="rgb(6.797791%, 6.541443%, 26.298523%)" offset="0.394531"/><stop stop-opacity="1" stop-color="rgb(6.97937%, 6.716919%, 27.001953%)" offset="0.398438"/><stop stop-opacity="1" stop-color="rgb(7.16095%, 6.890869%, 27.703857%)" offset="0.402344"/><stop stop-opacity="1" stop-color="rgb(7.342529%, 7.066345%, 28.407288%)" offset="0.40625"/><stop stop-opacity="1" stop-color="rgb(7.524109%, 7.241821%, 29.109192%)" offset="0.410156"/><stop stop-opacity="1" stop-color="rgb(7.705688%, 7.417297%, 29.812622%)" offset="0.414062"/><stop stop-opacity="1" stop-color="rgb(7.887268%, 7.591248%, 30.516052%)" offset="0.417969"/><stop stop-opacity="1" stop-color="rgb(8.068848%, 7.766724%, 31.219482%)" offset="0.421875"/><stop stop-opacity="1" stop-color="rgb(8.250427%, 7.940674%, 31.921387%)" offset="0.425781"/><stop stop-opacity="1" stop-color="rgb(8.432007%, 8.11615%, 32.624817%)" offset="0.429688"/><stop stop-opacity="1" stop-color="rgb(8.613586%, 8.2901%, 33.326721%)" offset="0.433594"/><stop stop-opacity="1" stop-color="rgb(8.796692%, 8.465576%, 34.030151%)" offset="0.4375"/><stop stop-opacity="1" stop-color="rgb(8.978271%, 8.639526%, 34.733582%)" offset="0.441406"/><stop stop-opacity="1" stop-color="rgb(9.159851%, 8.815002%, 35.437012%)" offset="0.445312"/><stop stop-opacity="1" stop-color="rgb(9.341431%, 8.990479%, 36.138916%)" offset="0.449219"/><stop stop-opacity="1" stop-color="rgb(9.52301%, 9.165955%, 36.842346%)" offset="0.453125"/><stop stop-opacity="1" stop-color="rgb(9.70459%, 9.339905%, 37.545776%)" offset="0.457031"/><stop stop-opacity="1" stop-color="rgb(9.886169%, 9.515381%, 38.249207%)" offset="0.460937"/><stop stop-opacity="1" stop-color="rgb(10.067749%, 9.689331%, 38.951111%)" offset="0.464844"/><stop stop-opacity="1" stop-color="rgb(10.249329%, 9.864807%, 39.654541%)" offset="0.46875"/><stop stop-opacity="1" stop-color="rgb(10.430908%, 10.038757%, 40.356445%)" offset="0.472656"/><stop stop-opacity="1" stop-color="rgb(10.612488%, 10.214233%, 41.059875%)" offset="0.476562"/><stop stop-opacity="1" stop-color="rgb(10.794067%, 10.389709%, 41.763306%)" offset="0.480469"/><stop stop-opacity="1" stop-color="rgb(10.977173%, 10.565186%, 42.466736%)" offset="0.484375"/><stop stop-opacity="1" stop-color="rgb(11.158752%, 10.739136%, 43.16864%)" offset="0.488281"/><stop stop-opacity="1" stop-color="rgb(11.340332%, 10.914612%, 43.87207%)" offset="0.492188"/><stop stop-opacity="1" stop-color="rgb(11.521912%, 11.088562%, 44.573975%)" offset="0.496094"/><stop stop-opacity="1" stop-color="rgb(11.703491%, 11.264038%, 45.277405%)" offset="0.5"/><stop stop-opacity="1" stop-color="rgb(11.885071%, 11.437988%, 45.980835%)" offset="0.503906"/><stop stop-opacity="1" stop-color="rgb(12.06665%, 11.613464%, 46.684265%)" offset="0.507812"/><stop stop-opacity="1" stop-color="rgb(12.24823%, 11.787415%, 47.386169%)" offset="0.511719"/><stop stop-opacity="1" stop-color="rgb(12.42981%, 11.962891%, 48.0896%)" offset="0.515625"/><stop stop-opacity="1" stop-color="rgb(12.611389%, 12.138367%, 48.791504%)" offset="0.519531"/><stop stop-opacity="1" stop-color="rgb(12.792969%, 12.313843%, 49.494934%)" offset="0.523438"/><stop stop-opacity="1" stop-color="rgb(12.974548%, 12.487793%, 50.198364%)" offset="0.527344"/><stop stop-opacity="1" stop-color="rgb(13.157654%, 12.663269%, 50.901794%)" offset="0.53125"/><stop stop-opacity="1" stop-color="rgb(13.339233%, 12.837219%, 51.603699%)" offset="0.535156"/><stop stop-opacity="1" stop-color="rgb(13.520813%, 13.012695%, 52.307129%)" offset="0.539062"/><stop stop-opacity="1" stop-color="rgb(13.702393%, 13.186646%, 53.009033%)" offset="0.542969"/><stop stop-opacity="1" stop-color="rgb(13.883972%, 13.362122%, 53.712463%)" offset="0.546875"/><stop stop-opacity="1" stop-color="rgb(14.065552%, 13.536072%, 54.415894%)" offset="0.550781"/><stop stop-opacity="1" stop-color="rgb(14.247131%, 13.711548%, 55.119324%)" offset="0.554688"/><stop stop-opacity="1" stop-color="rgb(14.428711%, 13.887024%, 55.821228%)" offset="0.558594"/><stop stop-opacity="1" stop-color="rgb(14.610291%, 14.0625%, 56.524658%)" offset="0.5625"/><stop stop-opacity="1" stop-color="rgb(14.79187%, 14.23645%, 57.226562%)" offset="0.566406"/><stop stop-opacity="1" stop-color="rgb(14.97345%, 14.411926%, 57.929993%)" offset="0.570312"/><stop stop-opacity="1" stop-color="rgb(15.155029%, 14.585876%, 58.633423%)" offset="0.574219"/><stop stop-opacity="1" stop-color="rgb(15.336609%, 14.761353%, 59.336853%)" offset="0.578125"/><stop stop-opacity="1" stop-color="rgb(15.518188%, 14.935303%, 60.038757%)" offset="0.582031"/><stop stop-opacity="1" stop-color="rgb(15.701294%, 15.110779%, 60.742188%)" offset="0.585938"/><stop stop-opacity="1" stop-color="rgb(15.882874%, 15.286255%, 61.444092%)" offset="0.589844"/><stop stop-opacity="1" stop-color="rgb(16.064453%, 15.461731%, 62.147522%)" offset="0.59375"/><stop stop-opacity="1" stop-color="rgb(16.246033%, 15.635681%, 62.850952%)" offset="0.597656"/><stop stop-opacity="1" stop-color="rgb(16.427612%, 15.811157%, 63.554382%)" offset="0.601562"/><stop stop-opacity="1" stop-color="rgb(16.609192%, 15.985107%, 64.256287%)" offset="0.605469"/><stop stop-opacity="1" stop-color="rgb(16.790771%, 16.160583%, 64.959717%)" offset="0.609375"/><stop stop-opacity="1" stop-color="rgb(16.972351%, 16.334534%, 65.663147%)" offset="0.613281"/><stop stop-opacity="1" stop-color="rgb(17.153931%, 16.51001%, 66.366577%)" offset="0.617188"/><stop stop-opacity="1" stop-color="rgb(17.33551%, 16.68396%, 67.068481%)" offset="0.621094"/><stop stop-opacity="1" stop-color="rgb(17.51709%, 16.859436%, 67.771912%)" offset="0.625"/><stop stop-opacity="1" stop-color="rgb(17.698669%, 17.034912%, 68.473816%)" offset="0.628906"/><stop stop-opacity="1" stop-color="rgb(17.881775%, 17.210388%, 69.177246%)" offset="0.632812"/><stop stop-opacity="1" stop-color="rgb(18.063354%, 17.384338%, 69.880676%)" offset="0.636719"/><stop stop-opacity="1" stop-color="rgb(18.244934%, 17.559814%, 70.584106%)" offset="0.640625"/><stop stop-opacity="1" stop-color="rgb(18.426514%, 17.733765%, 71.286011%)" offset="0.644531"/><stop stop-opacity="1" stop-color="rgb(18.608093%, 17.909241%, 71.989441%)" offset="0.648438"/><stop stop-opacity="1" stop-color="rgb(18.789673%, 18.083191%, 72.691345%)" offset="0.652344"/><stop stop-opacity="1" stop-color="rgb(18.971252%, 18.258667%, 73.394775%)" offset="0.65625"/><stop stop-opacity="1" stop-color="rgb(19.152832%, 18.434143%, 74.098206%)" offset="0.660156"/><stop stop-opacity="1" stop-color="rgb(19.334412%, 18.609619%, 74.801636%)" offset="0.664062"/><stop stop-opacity="1" stop-color="rgb(19.515991%, 18.783569%, 75.50354%)" offset="0.667969"/><stop stop-opacity="1" stop-color="rgb(19.697571%, 18.959045%, 76.20697%)" offset="0.671875"/><stop stop-opacity="1" stop-color="rgb(19.87915%, 19.132996%, 76.908875%)" offset="0.675781"/><stop stop-opacity="1" stop-color="rgb(20.062256%, 19.308472%, 77.612305%)" offset="0.679687"/><stop stop-opacity="1" stop-color="rgb(20.243835%, 19.482422%, 78.315735%)" offset="0.683594"/><stop stop-opacity="1" stop-color="rgb(20.425415%, 19.657898%, 79.019165%)" offset="0.6875"/><stop stop-opacity="1" stop-color="rgb(20.602417%, 19.828796%, 79.704285%)" offset="0.691406"/><stop stop-opacity="1" stop-color="rgb(20.779419%, 19.999695%, 80.389404%)" offset="0.695312"/><stop stop-opacity="1" stop-color="rgb(20.779419%, 19.999695%, 80.389404%)" offset="0.703125"/><stop stop-opacity="1" stop-color="rgb(20.779419%, 19.999695%, 80.389404%)" offset="0.71875"/><stop stop-opacity="1" stop-color="rgb(20.779419%, 19.999695%, 80.389404%)" offset="0.75"/><stop stop-opacity="1" stop-color="rgb(20.779419%, 19.999695%, 80.389404%)" offset="1"/></linearGradient><clipPath id="bf6c1c1405"><rect x="0" width="60" y="0" height="30"/></clipPath><clipPath id="3e3a1171c0"><path d="M 0.847656 0 L 59.316406 0 L 59.316406 29.03125 L 0.847656 29.03125 Z M 0.847656 0 " clip-rule="nonzero"/></clipPath><clipPath id="6a2b9cbfc2"><rect x="0" width="60" y="0" height="30"/></clipPath><clipPath id="c5eab66a7d"><rect x="0" width="60" y="0" height="30"/></clipPath><mask id="69fa8f6f44"><g filter="url(#dd8b61a0c5)"><g transform="matrix(1, 0, 0, 1, 0, 0.000000000000005692)"><g clip-path="url(#c5eab66a7d)"><g clip-path="url(#3e3a1171c0)"><g transform="matrix(1, 0, 0, 1, 0, 0.000000000000005692)"><g clip-path="url(#6a2b9cbfc2)"><g fill="#000000" fill-opacity="1"><g transform="translate(15.043577, 17.047908)"><g><path d="M 3.34375 0.140625 C 2.875 0.140625 2.4375 0.0625 2.03125 -0.09375 C 1.632812 -0.25 1.289062 -0.46875 1 -0.75 C 0.71875 -1.039062 0.492188 -1.382812 0.328125 -1.78125 C 0.171875 -2.175781 0.09375 -2.601562 0.09375 -3.0625 C 0.09375 -3.53125 0.171875 -3.957031 0.328125 -4.34375 C 0.492188 -4.726562 0.71875 -5.0625 1 -5.34375 C 1.289062 -5.632812 1.632812 -5.859375 2.03125 -6.015625 C 2.4375 -6.171875 2.875 -6.25 3.34375 -6.25 C 3.738281 -6.25 4.125 -6.179688 4.5 -6.046875 C 4.882812 -5.921875 5.226562 -5.71875 5.53125 -5.4375 C 5.832031 -5.15625 6.066406 -4.78125 6.234375 -4.3125 L 5.234375 -3.953125 C 5.097656 -4.273438 4.925781 -4.523438 4.71875 -4.703125 C 4.507812 -4.878906 4.285156 -5.003906 4.046875 -5.078125 C 3.816406 -5.148438 3.582031 -5.1875 3.34375 -5.1875 C 2.945312 -5.1875 2.597656 -5.09375 2.296875 -4.90625 C 1.992188 -4.726562 1.753906 -4.476562 1.578125 -4.15625 C 1.410156 -3.84375 1.328125 -3.476562 1.328125 -3.0625 C 1.328125 -2.65625 1.410156 -2.285156 1.578125 -1.953125 C 1.753906 -1.628906 1.992188 -1.375 2.296875 -1.1875 C 2.597656 -1 2.945312 -0.90625 3.34375 -0.90625 C 3.582031 -0.90625 3.816406 -0.941406 4.046875 -1.015625 C 4.285156 -1.097656 4.507812 -1.234375 4.71875 -1.421875 C 4.925781 -1.609375 5.097656 -1.863281 5.234375 -2.1875 L 6.28125 -1.859375 C 6.082031 -1.367188 5.828125 -0.976562 5.515625 -0.6875 C 5.210938 -0.394531 4.875 -0.179688 4.5 -0.046875 C 4.125 0.078125 3.738281 0.140625 3.34375 0.140625 Z M 3.34375 0.140625 "/></g></g></g><g fill="#000000" fill-opacity="1"><g transform="translate(21.654268, 17.047908)"><g><path d="M 0.421875 0 L 0.421875 -6.09375 L 1.65625 -6.09375 L 1.65625 -1.046875 L 5.296875 -1.046875 L 5.296875 0 Z M 0.421875 0 "/></g></g></g><g fill="#000000" fill-opacity="1"><g transform="translate(26.85398, 17.047908)"><g><path d="M 3.5625 0.09375 C 3.164062 0.09375 2.78125 0.0234375 2.40625 -0.109375 C 2.039062 -0.253906 1.707031 -0.460938 1.40625 -0.734375 C 1.101562 -1.015625 0.863281 -1.363281 0.6875 -1.78125 C 0.507812 -2.195312 0.421875 -2.6875 0.421875 -3.25 L 0.421875 -6.09375 L 1.640625 -6.09375 L 1.640625 -3.25 C 1.640625 -2.726562 1.734375 -2.296875 1.921875 -1.953125 C 2.109375 -1.609375 2.347656 -1.347656 2.640625 -1.171875 C 2.929688 -1.003906 3.234375 -0.921875 3.546875 -0.921875 C 3.867188 -0.921875 4.175781 -1.003906 4.46875 -1.171875 C 4.757812 -1.347656 5 -1.609375 5.1875 -1.953125 C 5.375 -2.296875 5.46875 -2.726562 5.46875 -3.25 L 5.46875 -6.09375 L 6.671875 -6.09375 L 6.671875 -3.25 C 6.671875 -2.6875 6.582031 -2.195312 6.40625 -1.78125 C 6.226562 -1.363281 5.988281 -1.015625 5.6875 -0.734375 C 5.394531 -0.460938 5.0625 -0.253906 4.6875 -0.109375 C 4.320312 0.0234375 3.945312 0.09375 3.5625 0.09375 Z M 3.5625 0.09375 "/></g></g></g><g fill="#000000" fill-opacity="1"><g transform="translate(34.231133, 17.047908)"><g><path d="M 0.4375 0 L 0.4375 -6.09375 L 3.578125 -6.09375 C 3.984375 -6.09375 4.335938 -6.03125 4.640625 -5.90625 C 4.953125 -5.78125 5.195312 -5.585938 5.375 -5.328125 C 5.550781 -5.078125 5.640625 -4.75 5.640625 -4.34375 C 5.640625 -4.15625 5.582031 -3.957031 5.46875 -3.75 C 5.351562 -3.550781 5.179688 -3.390625 4.953125 -3.265625 C 5.179688 -3.210938 5.367188 -3.109375 5.515625 -2.953125 C 5.671875 -2.804688 5.785156 -2.632812 5.859375 -2.4375 C 5.941406 -2.25 5.984375 -2.0625 5.984375 -1.875 C 5.984375 -1.539062 5.914062 -1.253906 5.78125 -1.015625 C 5.65625 -0.773438 5.484375 -0.578125 5.265625 -0.421875 C 5.046875 -0.273438 4.796875 -0.164062 4.515625 -0.09375 C 4.242188 -0.03125 3.96875 0 3.6875 0 Z M 1.609375 -3.65625 L 3.65625 -3.65625 C 3.882812 -3.664062 4.078125 -3.71875 4.234375 -3.8125 C 4.398438 -3.914062 4.484375 -4.097656 4.484375 -4.359375 C 4.484375 -4.546875 4.4375 -4.691406 4.34375 -4.796875 C 4.257812 -4.898438 4.148438 -4.972656 4.015625 -5.015625 C 3.890625 -5.066406 3.75 -5.09375 3.59375 -5.09375 L 1.609375 -5.09375 Z M 1.609375 -1 L 3.6875 -1 C 3.882812 -1.007812 4.066406 -1.039062 4.234375 -1.09375 C 4.398438 -1.144531 4.535156 -1.226562 4.640625 -1.34375 C 4.742188 -1.46875 4.796875 -1.640625 4.796875 -1.859375 C 4.796875 -2.066406 4.738281 -2.234375 4.625 -2.359375 C 4.519531 -2.484375 4.378906 -2.566406 4.203125 -2.609375 C 4.035156 -2.660156 3.863281 -2.6875 3.6875 -2.6875 L 1.609375 -2.6875 Z M 1.609375 -1 "/></g></g></g></g></g></g></g></g></g></mask><clipPath id="2acc9bb1ad"><path d="M 0.847656 0 L 57.867188 0 L 57.867188 29.03125 L 0.847656 29.03125 Z M 0.847656 0 " clip-rule="nonzero"/></clipPath><clipPath id="fe15e78f95"><rect x="0" width="60" y="0" height="30"/></clipPath><clipPath id="2ea01cde38"><rect x="0" width="60" y="0" height="30"/></clipPath><clipPath id="316b7748f5"><rect x="0" width="10" y="0" height="16"/></clipPath></defs><path fill="#00bf63" d="M 47.867188 11.808594 C 48.367188 12.246094 48.65625 12.84375 48.726562 13.597656 L 48.714844 13.628906 L 47 13.628906 C 46.941406 13.242188 46.804688 12.953125 46.597656 12.757812 C 46.390625 12.5625 46.074219 12.464844 45.652344 12.464844 C 43.816406 12.464844 43.605469 15.453125 45.195312 16.648438 C 43.324219 16.097656 42.710938 14.8125 42.714844 13.640625 C 42.730469 11.117188 46.140625 10.316406 47.867188 11.808594 Z M 47.867188 11.808594 " fill-opacity="1" fill-rule="nonzero"/><g clip-path="url(#b184069db5)"><path fill="#ff1fa9" d="M 48.765625 17.589844 C 48.5 17.886719 48.113281 18.148438 47.605469 18.375 C 47.097656 18.597656 46.460938 18.710938 45.695312 18.710938 C 43.917969 18.710938 42.003906 17.453125 41.816406 15 C 42.722656 17.597656 45.636719 18.058594 46.9375 17.121094 L 46.9375 15.960938 L 45.699219 15.960938 L 45.699219 14.832031 L 48.765625 14.832031 Z M 48.765625 17.589844 " fill-opacity="1" fill-rule="nonzero"/></g><g clip-path="url(#ec04329d27)"><path fill="#00bf63" d="M 11.175781 10.945312 C 11.175781 11.933594 10.351562 12.734375 9.332031 12.734375 C 8.3125 12.734375 7.484375 11.933594 7.484375 10.945312 C 7.484375 9.957031 8.3125 9.152344 9.332031 9.152344 C 10.351562 9.152344 11.175781 9.957031 11.175781 10.945312 Z M 11.175781 10.945312 " fill-opacity="1" fill-rule="nonzero"/></g><g clip-path="url(#0e77fec88c)"><path fill="#00bf63" d="M 13.554688 14.332031 C 13.554688 15.320312 12.726562 16.121094 11.707031 16.121094 C 10.691406 16.121094 9.863281 15.320312 9.863281 14.332031 C 9.863281 13.34375 10.691406 12.539062 11.707031 12.539062 C 12.726562 12.539062 13.554688 13.34375 13.554688 14.332031 Z M 13.554688 14.332031 " fill-opacity="1" fill-rule="nonzero"/></g><g clip-path="url(#4dc3130a9d)"><path fill="#00bf63" d="M 8.828125 14.347656 C 8.828125 14.707031 8.71875 15.046875 8.527344 15.328125 C 8.195312 15.816406 7.628906 16.136719 6.980469 16.136719 C 5.960938 16.136719 5.136719 15.335938 5.136719 14.347656 C 5.136719 13.359375 5.960938 12.554688 6.980469 12.554688 C 8 12.554688 8.828125 13.359375 8.828125 14.347656 Z M 8.828125 14.347656 " fill-opacity="1" fill-rule="nonzero"/></g><g clip-path="url(#62b0b35b32)"><path fill="#00bf63" d="M 11.496094 17.820312 C 10.585938 17.820312 10.105469 17.078125 9.855469 16.339844 C 9.601562 15.597656 9.578125 14.855469 9.578125 14.855469 L 9.113281 14.851562 C 9.113281 14.851562 9.027344 17.816406 7.203125 17.820312 Z M 11.496094 17.820312 " fill-opacity="1" fill-rule="nonzero"/></g><path fill="#00bf63" d="M 8.078125 12.257812 C 9.113281 13.296875 9.113281 14.851562 9.113281 14.851562 L 9.578125 14.855469 C 9.578125 14.855469 9.578125 13.265625 10.585938 12.257812 " fill-opacity="1" fill-rule="nonzero"/><path fill="#00bf63" d="M 8.285156 15.589844 C 9.320312 14.550781 10.878906 14.550781 10.878906 14.550781 L 10.882812 14.085938 C 10.882812 14.085938 9.292969 14.085938 8.285156 13.078125 " fill-opacity="1" fill-rule="nonzero"/><path fill="#00bf63" d="M 10.363281 15.597656 C 9.328125 14.558594 7.769531 14.558594 7.769531 14.558594 L 7.765625 14.09375 C 7.765625 14.09375 9.355469 14.09375 10.363281 13.085938 " fill-opacity="1" fill-rule="nonzero"/><g clip-path="url(#8072c7bacf)"><g transform="matrix(1, 0, 0, 1, 0, 0.000000000000005692)"><g clip-path="url(#2ea01cde38)"><g clip-path="url(#9862f4b3dd)"><g mask="url(#69fa8f6f44)"><g transform="matrix(1, 0, 0, 1, 0, 0.000000000000005692)"><g clip-path="url(#fe15e78f95)"><g clip-path="url(#2acc9bb1ad)"><path fill="url(#0cb36036db)" d="M 0.847656 0 L 0.847656 29.03125 L 57.867188 29.03125 L 57.867188 0 Z M 0.847656 0 " fill-rule="nonzero"/></g></g></g></g></g></g></g></g><g transform="matrix(1, 0, 0, 1, 49, 5)"><g clip-path="url(#316b7748f5)"><g fill="#292626" fill-opacity="1"><g transform="translate(1.080744, 12.609618)"><g><path d="M 1.984375 -3.71875 C 1.984375 -2.851562 2.171875 -2.203125 2.546875 -1.765625 C 2.929688 -1.328125 3.421875 -1.109375 4.015625 -1.109375 C 4.609375 -1.109375 5.085938 -1.332031 5.453125 -1.78125 C 5.828125 -2.226562 6.015625 -2.875 6.015625 -3.71875 C 6.015625 -4.550781 5.828125 -5.191406 5.453125 -5.640625 C 5.085938 -6.085938 4.601562 -6.3125 4 -6.3125 C 3.382812 -6.3125 2.894531 -6.085938 2.53125 -5.640625 C 2.164062 -5.191406 1.984375 -4.550781 1.984375 -3.71875 Z M 0.421875 -3.71875 C 0.421875 -4.988281 0.753906 -5.957031 1.421875 -6.625 C 2.085938 -7.289062 2.941406 -7.625 3.984375 -7.625 C 5.023438 -7.625 5.878906 -7.289062 6.546875 -6.625 C 7.222656 -5.96875 7.5625 -5 7.5625 -3.71875 C 7.5625 -2.457031 7.234375 -1.488281 6.578125 -0.8125 C 5.921875 -0.132812 5.0625 0.203125 4 0.203125 C 2.988281 0.203125 2.140625 -0.113281 1.453125 -0.75 C 0.765625 -1.394531 0.421875 -2.382812 0.421875 -3.71875 Z M 0.421875 -3.71875 "/></g></g></g></g></g></svg>