<svg xmlns="http://www.w3.org/2000/svg" xmlns:xlink="http://www.w3.org/1999/xlink" width="90" zoomAndPan="magnify" viewBox="0 0 67.5 30.000001" height="40" preserveAspectRatio="xMidYMid meet" version="1.0"><defs><filter x="0%" y="0%" width="100%" height="100%" id="c5259d3a4e"><feColorMatrix values="0 0 0 0 1 0 0 0 0 1 0 0 0 0 1 0 0 0 1 0" color-interpolation-filters="sRGB"/></filter><g/><clipPath id="faed7a4376"><path d="M 42.09375 13 L 52 13 L 52 19.160156 L 42.09375 19.160156 Z M 42.09375 13 " clip-rule="nonzero"/></clipPath><clipPath id="e85a8da9e0"><path d="M 6 10.175781 L 11 10.175781 L 11 14 L 6 14 Z M 6 10.175781 " clip-rule="nonzero"/></clipPath><clipPath id="fd0218f851"><path d="M 4.535156 13 L 9 13 L 9 18 L 4.535156 18 Z M 4.535156 13 " clip-rule="nonzero"/></clipPath><clipPath id="e0d1f2b745"><path d="M 6 15 L 11 15 L 11 18.886719 L 6 18.886719 Z M 6 15 " clip-rule="nonzero"/></clipPath><clipPath id="6e89c4a088"><path d="M 0.847656 0 L 58.730469 0 L 58.730469 29.03125 L 0.847656 29.03125 Z M 0.847656 0 " clip-rule="nonzero"/></clipPath><clipPath id="7823877a64"><path d="M 0.847656 0 L 58.730469 0 L 58.730469 29.03125 L 0.847656 29.03125 Z M 0.847656 0 " clip-rule="nonzero"/></clipPath><clipPath id="6a449b5f93"><path d="M 0.847656 0 L 57.28125 0 L 57.28125 29.03125 L 0.847656 29.03125 Z M 0.847656 0 " clip-rule="nonzero"/></clipPath><linearGradient x1="-10.008653" gradientTransform="matrix(0.72389, 0, 0, 0.7254, 14.423272, 12.452253)" y1="31.602652" x2="48.98153" gradientUnits="userSpaceOnUse" y2="-27.387528" id="87139be2b3"><stop stop-opacity="1" stop-color="rgb(97.24884%, 67.83905%, 0%)" offset="0"/><stop stop-opacity="1" stop-color="rgb(97.24884%, 67.83905%, 0%)" offset="0.25"/><stop stop-opacity="1" stop-color="rgb(97.24884%, 67.83905%, 0%)" offset="0.3125"/><stop stop-opacity="1" stop-color="rgb(97.242737%, 67.805481%, 0.0137329%)" offset="0.328125"/><stop stop-opacity="1" stop-color="rgb(96.984863%, 66.438293%, 0.584412%)" offset="0.332031"/><stop stop-opacity="1" stop-color="rgb(96.734619%, 65.103149%, 1.142883%)" offset="0.335938"/><stop stop-opacity="1" stop-color="rgb(96.482849%, 63.768005%, 1.701355%)" offset="0.339844"/><stop stop-opacity="1" stop-color="rgb(96.231079%, 62.432861%, 2.259827%)" offset="0.34375"/><stop stop-opacity="1" stop-color="rgb(95.979309%, 61.097717%, 2.816772%)" offset="0.347656"/><stop stop-opacity="1" stop-color="rgb(95.727539%, 59.764099%, 3.375244%)" offset="0.351562"/><stop stop-opacity="1" stop-color="rgb(95.475769%, 58.428955%, 3.933716%)" offset="0.355469"/><stop stop-opacity="1" stop-color="rgb(95.225525%, 57.093811%, 4.492188%)" offset="0.359375"/><stop stop-opacity="1" stop-color="rgb(94.973755%, 55.758667%, 5.049133%)" offset="0.363281"/><stop stop-opacity="1" stop-color="rgb(94.721985%, 54.423523%, 5.607605%)" offset="0.367188"/><stop stop-opacity="1" stop-color="rgb(94.470215%, 53.088379%, 6.166077%)" offset="0.371094"/><stop stop-opacity="1" stop-color="rgb(94.219971%, 51.753235%, 6.724548%)" offset="0.375"/><stop stop-opacity="1" stop-color="rgb(93.968201%, 50.418091%, 7.281494%)" offset="0.378906"/><stop stop-opacity="1" stop-color="rgb(93.716431%, 49.084473%, 7.839966%)" offset="0.382812"/><stop stop-opacity="1" stop-color="rgb(93.464661%, 47.749329%, 8.398438%)" offset="0.386719"/><stop stop-opacity="1" stop-color="rgb(93.214417%, 46.414185%, 8.956909%)" offset="0.390625"/><stop stop-opacity="1" stop-color="rgb(92.962646%, 45.079041%, 9.513855%)" offset="0.394531"/><stop stop-opacity="1" stop-color="rgb(92.710876%, 43.743896%, 10.072327%)" offset="0.398438"/><stop stop-opacity="1" stop-color="rgb(92.459106%, 42.408752%, 10.630798%)" offset="0.402344"/><stop stop-opacity="1" stop-color="rgb(92.208862%, 41.075134%, 11.18927%)" offset="0.40625"/><stop stop-opacity="1" stop-color="rgb(91.957092%, 39.73999%, 11.746216%)" offset="0.410156"/><stop stop-opacity="1" stop-color="rgb(91.705322%, 38.404846%, 12.304688%)" offset="0.414062"/><stop stop-opacity="1" stop-color="rgb(91.453552%, 37.069702%, 12.863159%)" offset="0.417969"/><stop stop-opacity="1" stop-color="rgb(91.203308%, 35.734558%, 13.421631%)" offset="0.421875"/><stop stop-opacity="1" stop-color="rgb(90.951538%, 34.399414%, 13.978577%)" offset="0.425781"/><stop stop-opacity="1" stop-color="rgb(90.699768%, 33.06427%, 14.537048%)" offset="0.429688"/><stop stop-opacity="1" stop-color="rgb(90.447998%, 31.729126%, 15.093994%)" offset="0.433594"/><stop stop-opacity="1" stop-color="rgb(90.197754%, 30.395508%, 15.652466%)" offset="0.4375"/><stop stop-opacity="1" stop-color="rgb(89.945984%, 29.060364%, 16.210938%)" offset="0.441406"/><stop stop-opacity="1" stop-color="rgb(89.694214%, 27.72522%, 16.769409%)" offset="0.445312"/><stop stop-opacity="1" stop-color="rgb(89.442444%, 26.390076%, 17.326355%)" offset="0.449219"/><stop stop-opacity="1" stop-color="rgb(89.1922%, 25.054932%, 17.884827%)" offset="0.453125"/><stop stop-opacity="1" stop-color="rgb(88.94043%, 23.719788%, 18.443298%)" offset="0.457031"/><stop stop-opacity="1" stop-color="rgb(88.68866%, 22.384644%, 19.00177%)" offset="0.460938"/><stop stop-opacity="1" stop-color="rgb(88.267517%, 21.302795%, 19.737244%)" offset="0.464844"/><stop stop-opacity="1" stop-color="rgb(87.8479%, 20.220947%, 20.474243%)" offset="0.46875"/><stop stop-opacity="1" stop-color="rgb(86.009216%, 21.260071%, 22.706604%)" offset="0.472656"/><stop stop-opacity="1" stop-color="rgb(84.170532%, 22.299194%, 24.938965%)" offset="0.476562"/><stop stop-opacity="1" stop-color="rgb(82.331848%, 23.338318%, 27.171326%)" offset="0.480469"/><stop stop-opacity="1" stop-color="rgb(80.493164%, 24.377441%, 29.403687%)" offset="0.484375"/><stop stop-opacity="1" stop-color="rgb(78.65448%, 25.416565%, 31.636047%)" offset="0.488281"/><stop stop-opacity="1" stop-color="rgb(76.817322%, 26.457214%, 33.868408%)" offset="0.492187"/><stop stop-opacity="1" stop-color="rgb(74.978638%, 27.496338%, 36.100769%)" offset="0.496094"/><stop stop-opacity="1" stop-color="rgb(73.139954%, 28.535461%, 38.33313%)" offset="0.5"/><stop stop-opacity="1" stop-color="rgb(71.30127%, 29.574585%, 40.565491%)" offset="0.503906"/><stop stop-opacity="1" stop-color="rgb(69.462585%, 30.615234%, 42.797852%)" offset="0.507812"/><stop stop-opacity="1" stop-color="rgb(67.623901%, 31.654358%, 45.030212%)" offset="0.511719"/><stop stop-opacity="1" stop-color="rgb(65.785217%, 32.693481%, 47.262573%)" offset="0.515625"/><stop stop-opacity="1" stop-color="rgb(63.946533%, 33.732605%, 49.494934%)" offset="0.519531"/><stop stop-opacity="1" stop-color="rgb(62.107849%, 34.771729%, 51.727295%)" offset="0.523438"/><stop stop-opacity="1" stop-color="rgb(60.269165%, 35.810852%, 53.959656%)" offset="0.527344"/><stop stop-opacity="1" stop-color="rgb(58.430481%, 36.851501%, 56.192017%)" offset="0.53125"/><stop stop-opacity="1" stop-color="rgb(56.591797%, 37.890625%, 58.424377%)" offset="0.535156"/><stop stop-opacity="1" stop-color="rgb(54.753113%, 38.929749%, 60.656738%)" offset="0.539062"/><stop stop-opacity="1" stop-color="rgb(52.914429%, 39.968872%, 62.887573%)" offset="0.542969"/><stop stop-opacity="1" stop-color="rgb(51.075745%, 41.009521%, 65.119934%)" offset="0.546875"/><stop stop-opacity="1" stop-color="rgb(49.237061%, 42.048645%, 67.352295%)" offset="0.550781"/><stop stop-opacity="1" stop-color="rgb(47.398376%, 43.087769%, 69.584656%)" offset="0.554688"/><stop stop-opacity="1" stop-color="rgb(45.559692%, 44.126892%, 71.817017%)" offset="0.558594"/><stop stop-opacity="1" stop-color="rgb(43.721008%, 45.166016%, 74.049377%)" offset="0.5625"/><stop stop-opacity="1" stop-color="rgb(41.882324%, 46.205139%, 76.281738%)" offset="0.566406"/><stop stop-opacity="1" stop-color="rgb(40.045166%, 47.245789%, 78.514099%)" offset="0.570312"/><stop stop-opacity="1" stop-color="rgb(38.206482%, 48.284912%, 80.74646%)" offset="0.574219"/><stop stop-opacity="1" stop-color="rgb(36.367798%, 49.324036%, 82.978821%)" offset="0.578125"/><stop stop-opacity="1" stop-color="rgb(34.529114%, 50.363159%, 85.211182%)" offset="0.582031"/><stop stop-opacity="1" stop-color="rgb(32.69043%, 51.403809%, 87.443542%)" offset="0.585938"/><stop stop-opacity="1" stop-color="rgb(30.851746%, 52.442932%, 89.675903%)" offset="0.589844"/><stop stop-opacity="1" stop-color="rgb(29.013062%, 53.482056%, 91.908264%)" offset="0.59375"/><stop stop-opacity="1" stop-color="rgb(27.174377%, 54.521179%, 94.140625%)" offset="0.597656"/><stop stop-opacity="1" stop-color="rgb(25.335693%, 55.560303%, 96.372986%)" offset="0.601562"/><stop stop-opacity="1" stop-color="rgb(23.841858%, 56.404114%, 98.18573%)" offset="0.605469"/><stop stop-opacity="1" stop-color="rgb(22.349548%, 57.249451%, 100%)" offset="0.609375"/><stop stop-opacity="1" stop-color="rgb(22.349548%, 57.249451%, 100%)" offset="0.625"/><stop stop-opacity="1" stop-color="rgb(22.349548%, 57.249451%, 100%)" offset="0.66077"/><stop stop-opacity="1" stop-color="rgb(22.349548%, 57.249451%, 100%)" offset="0.75"/><stop stop-opacity="1" stop-color="rgb(22.349548%, 57.249451%, 100%)" offset="1"/></linearGradient><clipPath id="9fe0bbb088"><rect x="0" width="59" y="0" height="30"/></clipPath><clipPath id="a53db3a1e5"><path d="M 0.847656 0 L 58.730469 0 L 58.730469 29.03125 L 0.847656 29.03125 Z M 0.847656 0 " clip-rule="nonzero"/></clipPath><clipPath id="346ad7b000"><rect x="0" width="59" y="0" height="30"/></clipPath><clipPath id="0e722d4442"><rect x="0" width="59" y="0" height="30"/></clipPath><mask id="62cde2c7dc"><g filter="url(#c5259d3a4e)"><g transform="matrix(1, 0, 0, 1, 0, 0.000000000000005692)"><g clip-path="url(#0e722d4442)"><g clip-path="url(#a53db3a1e5)"><g transform="matrix(1, 0, 0, 1, 0, 0.000000000000005692)"><g clip-path="url(#346ad7b000)"><g fill="#000000" fill-opacity="1"><g transform="translate(14.457409, 17.531826)"><g><path d="M 3.34375 0.140625 C 2.875 0.140625 2.4375 0.0625 2.03125 -0.09375 C 1.632812 -0.25 1.289062 -0.46875 1 -0.75 C 0.71875 -1.039062 0.492188 -1.382812 0.328125 -1.78125 C 0.171875 -2.175781 0.09375 -2.601562 0.09375 -3.0625 C 0.09375 -3.53125 0.171875 -3.957031 0.328125 -4.34375 C 0.492188 -4.726562 0.71875 -5.0625 1 -5.34375 C 1.289062 -5.632812 1.632812 -5.859375 2.03125 -6.015625 C 2.4375 -6.171875 2.875 -6.25 3.34375 -6.25 C 3.738281 -6.25 4.125 -6.179688 4.5 -6.046875 C 4.882812 -5.921875 5.226562 -5.71875 5.53125 -5.4375 C 5.832031 -5.15625 6.066406 -4.78125 6.234375 -4.3125 L 5.234375 -3.953125 C 5.097656 -4.273438 4.925781 -4.523438 4.71875 -4.703125 C 4.507812 -4.878906 4.285156 -5.003906 4.046875 -5.078125 C 3.816406 -5.148438 3.582031 -5.1875 3.34375 -5.1875 C 2.945312 -5.1875 2.597656 -5.09375 2.296875 -4.90625 C 1.992188 -4.726562 1.753906 -4.476562 1.578125 -4.15625 C 1.410156 -3.84375 1.328125 -3.476562 1.328125 -3.0625 C 1.328125 -2.65625 1.410156 -2.285156 1.578125 -1.953125 C 1.753906 -1.628906 1.992188 -1.375 2.296875 -1.1875 C 2.597656 -1 2.945312 -0.90625 3.34375 -0.90625 C 3.582031 -0.90625 3.816406 -0.941406 4.046875 -1.015625 C 4.285156 -1.097656 4.507812 -1.234375 4.71875 -1.421875 C 4.925781 -1.609375 5.097656 -1.863281 5.234375 -2.1875 L 6.28125 -1.859375 C 6.082031 -1.367188 5.828125 -0.976562 5.515625 -0.6875 C 5.210938 -0.394531 4.875 -0.179688 4.5 -0.046875 C 4.125 0.078125 3.738281 0.140625 3.34375 0.140625 Z M 3.34375 0.140625 "/></g></g></g><g fill="#000000" fill-opacity="1"><g transform="translate(21.068099, 17.531826)"><g><path d="M 0.421875 0 L 0.421875 -6.09375 L 1.65625 -6.09375 L 1.65625 -1.046875 L 5.296875 -1.046875 L 5.296875 0 Z M 0.421875 0 "/></g></g></g><g fill="#000000" fill-opacity="1"><g transform="translate(26.267811, 17.531826)"><g><path d="M 3.5625 0.09375 C 3.164062 0.09375 2.78125 0.0234375 2.40625 -0.109375 C 2.039062 -0.253906 1.707031 -0.460938 1.40625 -0.734375 C 1.101562 -1.015625 0.863281 -1.363281 0.6875 -1.78125 C 0.507812 -2.195312 0.421875 -2.6875 0.421875 -3.25 L 0.421875 -6.09375 L 1.640625 -6.09375 L 1.640625 -3.25 C 1.640625 -2.726562 1.734375 -2.296875 1.921875 -1.953125 C 2.109375 -1.609375 2.347656 -1.347656 2.640625 -1.171875 C 2.929688 -1.003906 3.234375 -0.921875 3.546875 -0.921875 C 3.867188 -0.921875 4.175781 -1.003906 4.46875 -1.171875 C 4.757812 -1.347656 5 -1.609375 5.1875 -1.953125 C 5.375 -2.296875 5.46875 -2.726562 5.46875 -3.25 L 5.46875 -6.09375 L 6.671875 -6.09375 L 6.671875 -3.25 C 6.671875 -2.6875 6.582031 -2.195312 6.40625 -1.78125 C 6.226562 -1.363281 5.988281 -1.015625 5.6875 -0.734375 C 5.394531 -0.460938 5.0625 -0.253906 4.6875 -0.109375 C 4.320312 0.0234375 3.945312 0.09375 3.5625 0.09375 Z M 3.5625 0.09375 "/></g></g></g><g fill="#000000" fill-opacity="1"><g transform="translate(33.644964, 17.531826)"><g><path d="M 0.4375 0 L 0.4375 -6.09375 L 3.578125 -6.09375 C 3.984375 -6.09375 4.335938 -6.03125 4.640625 -5.90625 C 4.953125 -5.78125 5.195312 -5.585938 5.375 -5.328125 C 5.550781 -5.078125 5.640625 -4.75 5.640625 -4.34375 C 5.640625 -4.15625 5.582031 -3.957031 5.46875 -3.75 C 5.351562 -3.550781 5.179688 -3.390625 4.953125 -3.265625 C 5.179688 -3.210938 5.367188 -3.109375 5.515625 -2.953125 C 5.671875 -2.804688 5.785156 -2.632812 5.859375 -2.4375 C 5.941406 -2.25 5.984375 -2.0625 5.984375 -1.875 C 5.984375 -1.539062 5.914062 -1.253906 5.78125 -1.015625 C 5.65625 -0.773438 5.484375 -0.578125 5.265625 -0.421875 C 5.046875 -0.273438 4.796875 -0.164062 4.515625 -0.09375 C 4.242188 -0.03125 3.96875 0 3.6875 0 Z M 1.609375 -3.65625 L 3.65625 -3.65625 C 3.882812 -3.664062 4.078125 -3.71875 4.234375 -3.8125 C 4.398438 -3.914062 4.484375 -4.097656 4.484375 -4.359375 C 4.484375 -4.546875 4.4375 -4.691406 4.34375 -4.796875 C 4.257812 -4.898438 4.148438 -4.972656 4.015625 -5.015625 C 3.890625 -5.066406 3.75 -5.09375 3.59375 -5.09375 L 1.609375 -5.09375 Z M 1.609375 -1 L 3.6875 -1 C 3.882812 -1.007812 4.066406 -1.039062 4.234375 -1.09375 C 4.398438 -1.144531 4.535156 -1.226562 4.640625 -1.34375 C 4.742188 -1.46875 4.796875 -1.640625 4.796875 -1.859375 C 4.796875 -2.066406 4.738281 -2.234375 4.625 -2.359375 C 4.519531 -2.484375 4.378906 -2.566406 4.203125 -2.609375 C 4.035156 -2.660156 3.863281 -2.6875 3.6875 -2.6875 L 1.609375 -2.6875 Z M 1.609375 -1 "/></g></g></g></g></g></g></g></g></g></mask><clipPath id="ea069ef6ed"><path d="M 0.847656 0 L 57.28125 0 L 57.28125 29.03125 L 0.847656 29.03125 Z M 0.847656 0 " clip-rule="nonzero"/></clipPath><clipPath id="aa4d094259"><rect x="0" width="59" y="0" height="30"/></clipPath><clipPath id="d05a508de8"><rect x="0" width="59" y="0" height="30"/></clipPath><clipPath id="28d18ac903"><path d="M 0.335938 1 L 10 1 L 10 12 L 0.335938 12 Z M 0.335938 1 " clip-rule="nonzero"/></clipPath><clipPath id="68cd02a69a"><rect x="0" width="11" y="0" height="15"/></clipPath></defs><path fill="#00bf63" d="M 50.660156 9.667969 C 51.375 10.285156 51.78125 11.132812 51.878906 12.203125 L 51.863281 12.246094 L 49.4375 12.246094 C 49.351562 11.699219 49.160156 11.285156 48.867188 11.011719 C 48.574219 10.734375 48.125 10.59375 47.527344 10.59375 C 44.929688 10.59375 44.628906 14.828125 46.882812 16.523438 C 44.230469 15.742188 43.359375 13.921875 43.371094 12.261719 C 43.390625 8.6875 48.222656 7.554688 50.660156 9.667969 Z M 50.660156 9.667969 " fill-opacity="1" fill-rule="nonzero"/><g clip-path="url(#faed7a4376)"><path fill="#ff751f" d="M 51.9375 17.855469 C 51.5625 18.273438 51.015625 18.644531 50.292969 18.960938 C 49.574219 19.28125 48.671875 19.441406 47.585938 19.441406 C 45.070312 19.441406 42.359375 17.660156 42.09375 14.183594 C 43.382812 17.863281 47.507812 18.519531 49.347656 17.191406 L 49.347656 15.546875 L 47.59375 15.546875 L 47.59375 13.945312 L 51.9375 13.945312 Z M 51.9375 17.855469 " fill-opacity="1" fill-rule="nonzero"/></g><g clip-path="url(#e85a8da9e0)"><path fill="#00bf63" d="M 10.589844 11.960938 C 10.589844 12.949219 9.765625 13.753906 8.746094 13.753906 C 7.726562 13.753906 6.898438 12.949219 6.898438 11.960938 C 6.898438 10.972656 7.726562 10.171875 8.746094 10.171875 C 9.765625 10.171875 10.589844 10.972656 10.589844 11.960938 Z M 10.589844 11.960938 " fill-opacity="1" fill-rule="nonzero"/></g><path fill="#00bf63" d="M 12.96875 15.347656 C 12.96875 16.335938 12.140625 17.140625 11.121094 17.140625 C 10.101562 17.140625 9.277344 16.335938 9.277344 15.347656 C 9.277344 14.359375 10.101562 13.558594 11.121094 13.558594 C 12.140625 13.558594 12.96875 14.359375 12.96875 15.347656 Z M 12.96875 15.347656 " fill-opacity="1" fill-rule="nonzero"/><g clip-path="url(#fd0218f851)"><path fill="#00bf63" d="M 8.242188 15.363281 C 8.242188 15.726562 8.128906 16.0625 7.941406 16.34375 C 7.609375 16.832031 7.042969 17.15625 6.394531 17.15625 C 5.375 17.15625 4.550781 16.351562 4.550781 15.363281 C 4.550781 14.375 5.375 13.574219 6.394531 13.574219 C 7.414062 13.574219 8.242188 14.375 8.242188 15.363281 Z M 8.242188 15.363281 " fill-opacity="1" fill-rule="nonzero"/></g><g clip-path="url(#e0d1f2b745)"><path fill="#00bf63" d="M 10.910156 18.839844 C 10 18.839844 9.519531 18.097656 9.269531 17.355469 C 9.015625 16.613281 8.992188 15.875 8.992188 15.875 L 8.527344 15.871094 C 8.527344 15.871094 8.441406 18.835938 6.617188 18.835938 Z M 10.910156 18.839844 " fill-opacity="1" fill-rule="nonzero"/></g><path fill="#00bf63" d="M 7.492188 13.277344 C 8.527344 14.3125 8.527344 15.871094 8.527344 15.871094 L 8.992188 15.875 C 8.992188 15.875 8.992188 14.285156 10 13.277344 " fill-opacity="1" fill-rule="nonzero"/><path fill="#00bf63" d="M 7.699219 16.605469 C 8.734375 15.570312 10.292969 15.570312 10.292969 15.570312 L 10.296875 15.105469 C 10.296875 15.105469 8.707031 15.105469 7.699219 14.097656 " fill-opacity="1" fill-rule="nonzero"/><path fill="#00bf63" d="M 9.777344 16.613281 C 8.742188 15.578125 7.183594 15.578125 7.183594 15.578125 L 7.179688 15.113281 C 7.179688 15.113281 8.769531 15.113281 9.777344 14.105469 " fill-opacity="1" fill-rule="nonzero"/><g clip-path="url(#6e89c4a088)"><g transform="matrix(1, 0, 0, 1, 0, 0.000000000000005692)"><g clip-path="url(#d05a508de8)"><g clip-path="url(#7823877a64)"><g mask="url(#62cde2c7dc)"><g transform="matrix(1, 0, 0, 1, 0, 0.000000000000005692)"><g clip-path="url(#aa4d094259)"><g clip-path="url(#ea069ef6ed)"><path fill="url(#87139be2b3)" d="M 0.847656 0 L 0.847656 29.03125 L 57.28125 29.03125 L 57.28125 0 Z M 0.847656 0 " fill-rule="nonzero"/></g></g></g></g></g></g></g></g><g transform="matrix(1, 0, 0, 1, 53, 8)"><g clip-path="url(#68cd02a69a)"><g clip-path="url(#28d18ac903)"><g fill="#0cc0df" fill-opacity="1"><g transform="translate(0.392048, 11.671466)"><g><path d="M 9.46875 -5.484375 C 9.46875 -4.734375 9.382812 -4.007812 9.21875 -3.3125 C 9.0625 -2.613281 8.800781 -2 8.4375 -1.46875 C 8.082031 -0.9375 7.617188 -0.515625 7.046875 -0.203125 C 6.484375 0.0976562 5.800781 0.25 5 0.25 C 4.195312 0.25 3.507812 0.0976562 2.9375 -0.203125 C 2.375 -0.515625 1.914062 -0.9375 1.5625 -1.46875 C 1.207031 -2.007812 0.945312 -2.625 0.78125 -3.3125 C 0.625 -4.007812 0.546875 -4.734375 0.546875 -5.484375 C 0.546875 -7.234375 0.910156 -8.507812 1.640625 -9.3125 C 2.367188 -10.125 3.488281 -10.53125 5 -10.53125 C 6.519531 -10.53125 7.644531 -10.125 8.375 -9.3125 C 9.101562 -8.507812 9.46875 -7.234375 9.46875 -5.484375 Z M 5 -1.578125 C 5.789062 -1.578125 6.398438 -1.90625 6.828125 -2.5625 C 7.253906 -3.21875 7.46875 -4.148438 7.46875 -5.359375 C 7.46875 -6.328125 7.253906 -7.070312 6.828125 -7.59375 C 6.410156 -8.113281 5.796875 -8.375 4.984375 -8.375 C 4.234375 -8.375 3.632812 -8.125 3.1875 -7.625 C 2.75 -7.132812 2.53125 -6.378906 2.53125 -5.359375 C 2.53125 -4.160156 2.738281 -3.226562 3.15625 -2.5625 C 3.582031 -1.90625 4.195312 -1.578125 5 -1.578125 Z M 5 -1.578125 "/></g></g></g></g></g></g></svg>